<?xml version="1.0" encoding="iso-8859-1"?>
<!-- Generator: Adobe Illustrator 18.1.1, SVG Export Plug-In . SVG Version: 6.00 Build 0)  -->
<svg version="1.1" id="_x31_1" xmlns="http://www.w3.org/2000/svg" xmlns:xlink="http://www.w3.org/1999/xlink" x="0px" y="0px"
	 viewBox="0 0 512 512" style="enable-background:new 0 0 512 512;" xml:space="preserve">
<g>
	<path style="fill:#FFFFFF;" d="M4.974,355.439c30.571-14.266,44.838-12.228,65.219-42.799
		c20.381-30.572,57.067-73.372,69.295-97.829c12.229-24.457,40.762-52.989,44.838-67.257c4.076-14.267,14.267-34.647,46.876-20.381
		c18.343-14.267,30.571-0.001,36.686,6.113c8.152-2.038,10.191-22.418,24.457-8.151c14.267,14.266,114.134,144.704,146.743,171.199
		c32.609,26.495,28.533,38.723,52.99,48.914c24.457,10.191,24.458,14.267,4.076,14.267c-20.381,0-48.915,2.037-63.181,12.228
		c-14.267,10.191-32.609,12.229-44.838,14.267c-12.228,2.038-22.419-8.153-44.838-4.076c-22.419,4.076-14.266,4.076-34.647,8.153
		c-20.381,4.076-26.495,0-63.181,0c-36.686,0-46.876-8.153-67.257-10.191c-20.381-2.038-2.039,2.038-36.686,0
		c-34.647-2.038-42.8,12.229-65.219,6.115c-22.419-6.115-6.114-18.342-28.533-18.342C25.355,367.668,4.974,355.439,4.974,355.439z"
		/>
	<g>
		<path style="fill:#231815;" d="M1.952,350.31c1.223-0.008,3.656-0.445,6.684-1.327c3.027-0.874,6.639-2.209,10.202-3.795
			c3.567-1.578,7.082-3.396,9.992-5.036c2.912-1.636,5.223-3.083,6.437-3.856c2.434-1.547,4.942-4.019,7.197-6.274
			c2.26-2.253,4.279-4.286,5.91-4.922c3.274-1.275,5.554-4.808,8.396-7.853c3.371-3.603,6.316-7.31,8.772-10.446
			c2.462-3.137,4.435-5.699,6.001-7.027c0.392-0.332,0.819-0.766,1.265-1.277c0.195-0.214,0.533-0.658,0.792-0.924l0.849-0.963
			c1.085-1.258,2.249-2.719,3.402-4.189c2.306-2.942,4.555-5.924,6.04-7.382c1.486-1.457,4.352-4.729,7.201-8.145
			c2.854-3.413,5.679-6.976,7.204-8.929c1.529-1.948,4.987-6.583,8.267-11.334c3.292-4.741,6.389-9.604,7.597-11.766
			c1.214-2.158,3.715-5.921,6.326-9.985c1.308-2.032,2.646-4.135,3.885-6.134c1.259-2.043,2.508-3.989,3.543-5.584
			c1.038-1.603,2.548-3.973,4.308-6.626c1.756-2.658,3.761-5.6,5.714-8.408c3.907-5.618,7.574-10.706,8.443-12.143
			c1.743-2.867,4.482-4.971,9.262-11.72c4.752-6.741,8.811-10.849,11.698-15.763c1.432-2.451,2.337-2.939,3.171-3.188
			c0.826-0.25,1.564-0.262,2.535-1.804c1.502-2.419,2.2-3.652,2.558-4.265l0.35-0.616c-0.008,0.007-2.538,0.386-0.991-2.39
			c0.195-0.346,0.425-0.799,0.697-1.326l0.973-1.916c0.718-1.409,1.563-3.044,2.453-4.693c1.768-3.304,3.767-6.664,4.999-8.479
			c1.228-1.817,1.872-2.179,2.788-3.008c0.46-0.414,0.992-0.945,1.745-1.815c0.756-0.872,1.719-2.086,3.166-3.835
			c1.456-1.746,2.729-2.952,3.869-3.877c1.145-0.922,2.16-1.569,3.209-2.159c1.054-0.588,2.142-1.129,3.536-1.752
			c1.394-0.614,3.098-1.334,5.492-1.993c1.197-0.324,2.572-0.609,4.037-0.767c1.463-0.162,3.012-0.199,4.531-0.107
			c3.049,0.176,5.942,0.874,8.134,1.595c2.197,0.723,3.73,1.442,4.206,1.756c0.469,0.328-0.1,0.216-2.296-0.348
			c-2.203-0.549-3.975-0.784-5.448-0.888c-1.477-0.097-2.661-0.064-3.745,0.012c-1.083,0.078-2.071,0.196-3.168,0.357
			c-1.094,0.165-2.302,0.368-3.796,0.742c-2.993,0.763-5.286,2.014-7.132,3.244c-1.848,1.246-3.279,2.497-4.549,3.664
			c-2.61,2.434-4.406,4.683-5.835,6.535c-1.417,1.864-2.44,3.37-3.249,4.579c-1.607,2.426-2.366,3.666-3.029,4.721
			c-1.31,2.12-2.59,4.261-4.593,7.901c-1.002,1.821-1.766,3.532-2.491,5.038c-0.72,1.506-1.372,2.817-2.015,3.891
			c-1.29,2.139-2.288,4.486-4.49,7.03c-2.196,2.548-5.616,5.192-5.616,5.188c0,0.001-1.096,0.997-2.43,2.452
			c-1.333,1.457-2.911,3.372-3.853,5.259c-1.886,3.778-4.665,7.946-7.249,11.201c-2.593,3.255-7.302,11.188-9.301,13.829
			c-2.012,2.642-4.899,7.733-9.09,13.855c-2.089,3.068-3.708,5.21-5.466,7.882c-1.743,2.69-3.679,5.925-6.492,11.057
			c-2.832,5.137-4.253,6.457-5.257,7.411c-1.018,0.95-1.64,1.526-3.129,5.069c-2.992,7.086-6.398,12.96-9.998,17.594
			c-3.608,4.648-8.863,7.921-11.726,12.038c-2.858,4.131-9.007,12.039-11.408,15.462c-0.3,0.428-0.714,0.981-1.213,1.626
			l-0.808,1.028l-0.837,1.047l-0.88,1.206l-1.032,1.368c-0.709,0.92-1.45,1.85-2.193,2.756c-2.97,3.632-6,6.888-6.87,7.816
			c-0.868,0.93-2.761,2.638-4.808,4.627c-2.045,1.993-4.249,4.265-5.693,6.446c-1.438,2.187-5.133,5.414-8.94,8.324
			c-3.796,2.926-7.7,5.524-9.294,6.951c-1.587,1.435-4.184,3.678-6.882,5.833c-2.692,2.162-5.492,4.224-7.272,5.487
			c-1.771,1.274-4.786,3.057-7.691,4.371c-2.897,1.326-5.663,2.175-6.704,1.949c-1.043-0.226-1.956-0.73-3.241-1.37
			c-1.282-0.645-2.946-1.416-5.409-2.296c-2.454-0.902-2.421-2.308-1.877-3.438C0.856,351.238,1.952,350.312,1.952,350.31z"/>
		<path style="fill:#231815;" d="M224.547,137.464c-0.01,0.001-1.495-1.606-0.644-2.46c0.855-0.88,0.025-2.168,1.177-2.224
			c1.159-0.07,1.464-0.868,2.074-1.077c0.612-0.211,1.566-0.979,2.101-1.691c0.533-0.712,2.681-1.596,3.445-2.446
			c0.768-0.857,1.563-0.628,2.047-1.241c0.486-0.614,0.77-1.584,0.772-1.587c0,0,0.884-0.316,1.445-0.398
			c0.281-0.04,1.22-0.617,2.359-1.161c0.285-0.137,0.583-0.269,0.886-0.392l0.226-0.09l0.082-0.032l0.047-0.02l0.135-0.066
			l0.189-0.089c0.496-0.234,0.939-0.427,1.24-0.544c0.599-0.239,1.585-0.658,2.568-1.002c0.982-0.349,1.965-0.61,2.436-0.69
			c0.949-0.171,1.819,0.249,2.215,0.176c0.812-0.147,1.238-0.175,1.447-0.197l0.212-0.016c-0.001,0.001,0.702,0.032,1.523,0.177
			c0.821,0.134,1.742,0.41,2.205,0.581c0.466,0.166,0.923,0.535,1.349,0.897c0.431,0.361,0.834,0.715,1.285,0.862
			c0.916,0.293,2.199,1.214,3.737,1.952c1.555,0.738,2.494,2.484,4.423,2.991c0.961,0.252,1.601,1.064,2.149,1.831
			c0.543,0.768,0.996,1.494,1.456,1.55c0.906,0.122,2.327,1.266,2.527,1.864c0.195,0.616-1.465,0.418-2.297,0.125
			c-0.414-0.137-1.21-0.474-1.948-0.81c-0.739-0.334-1.421-0.662-1.635-0.69c-0.439-0.064-0.608-2.16-1.76-2.3
			c-1.172-0.142-2.774-1.863-3.238-2.264c-0.232-0.202-0.845-0.807-1.499-1.372c-0.65-0.567-1.353-1.075-1.669-1.16
			c-0.311-0.077-1.906-0.958-3.705-1.348c-0.895-0.204-1.825-0.283-2.615-0.263c-0.791,0.017-1.444,0.119-1.81,0.194
			c-0.365,0.074-0.993,0.123-1.753,0.227c-0.76,0.1-1.653,0.253-2.53,0.451c-0.876,0.197-1.735,0.435-2.428,0.653
			c-0.348,0.108-0.653,0.211-0.9,0.299l-0.325,0.119c-0.11,0.046-0.203,0.076-0.272,0.098c-0.441,0.142-1.488,0.465-2.472,0.995
			c-0.986,0.519-1.892,1.196-2.106,1.736c-0.42,1.079-1.35,1.217-2.09,2.051c-0.735,0.827-2.298,1.791-2.777,2.178
			c-0.473,0.38-3.291,2.377-3.456,2.775c-0.159,0.402-0.484,1.779-1.478,3.051c-0.501,0.635-1.107,0.59-1.566,0.378
			C224.87,137.835,224.547,137.462,224.547,137.464z"/>
		<path style="fill:#231815;" d="M294.354,127.302c1.519,1.162,2.878,2.604,4.12,4.133c0.621,0.767,1.214,1.56,1.786,2.367
			c0.287,0.405,0.569,0.813,0.848,1.223l0.415,0.62l0.307,0.463l0.084,0.126l0.106,0.109l0.212,0.215l1.097,1.123l1.029,1.076
			c0.68,0.718,1.353,1.436,2.015,2.158c1.325,1.444,2.615,2.893,3.879,4.351c5.056,5.839,9.708,11.805,14.442,18.173
			c4.733,6.371,9.536,13.156,14.86,20.71l8.453,11.943l4.659,6.468l2.464,3.367c0.84,1.133,1.687,2.289,2.594,3.478
			c7.236,9.198,12.964,16.237,17.773,22.082c4.807,5.833,8.667,10.442,12.197,14.618c3.534,4.172,6.739,7.909,10.323,11.924
			c3.587,4.01,7.549,8.303,12.694,13.482c5.151,5.174,11.724,19.382,14.774,22.265c0.754,0.707,1.452,1.359,2.091,2.028l1.927,1.96
			l3.717,3.826c5.042,5.227,8.151,0.888,22.16,15.641c6.989,7.398,10.942,14.427,12.645,16.092c1.71,1.671,1.468,1.393,0.973,0.844
			c-0.493-0.549-1.229-1.376-0.502-0.807c0.364,0.283,1.091,0.916,2.412,2.094c1.322,1.174,4.856,7.968,7.646,10.378
			c5.585,4.814,6.489,2.593,10.924,5.462c4.437,2.869,10.491,2.387,13.514,3.812c3.027,1.423,5.295,2.268,6.789,2.781
			c1.497,0.508,2.223,0.688,2.221,0.691c-8.32-5.401-15.637-11.846-22.349-18.743c-8.433-6.237-16.338-13.253-24.011-20.566
			c-3.836-3.657-7.657-7.384-11.487-11.084l-11.485-11.112l-6.56-6.793l-7.071-7.309c-0.658-0.676-1.352-1.404-2.072-2.127
			l-2.205-2.13c-1.474-1.433-2.987-2.922-4.521-4.454c-6.142-6.123-12.6-12.944-18.399-19.389
			c-5.807-6.437-10.966-12.484-14.701-16.896c-7.485-8.806-16.307-20.304-24.324-31.434c-0.5-0.678-0.962-1.36-1.432-2.051
			l-1.431-2.104l-2.798-4.152l-5.298-7.922c-3.378-5.054-6.432-9.582-8.944-13.162c-2.513-3.577-5.78-7.972-9.624-12.862
			c-3.846-4.888-8.27-10.272-13.141-15.765c-2.436-2.744-4.985-5.516-7.63-8.262c-1.323-1.372-2.671-2.738-4.039-4.091l-2.071-2.017
			l-0.522-0.5l-0.25-0.236l-0.125-0.113l-0.104-0.138l-0.196-0.273l-0.428-0.594c-1.151-1.584-2.369-3.155-3.72-4.643
			c-1.352-1.485-2.833-2.898-4.536-4.096c-1.696-1.193-3.647-2.17-5.78-2.611c-0.531-0.109-1.069-0.184-1.611-0.226
			c-0.135-0.011-0.271-0.019-0.406-0.022l-0.199-0.008l-0.12-0.001c-0.086,0.003-0.151-0.007-0.216-0.017l-0.323-0.048
			c-0.984-0.135-1.988-0.219-3.017-0.2c-1.026,0.015-2.043,0.138-3.007,0.391c-0.964,0.249-1.864,0.63-2.648,1.077
			c-1.58,0.908-2.684,1.984-3.612,2.878c-0.924,0.909-1.687,1.692-2.388,2.347c-0.699,0.658-1.325,1.194-1.874,1.648
			c-1.101,0.897-1.876,1.47-2.198,1.876c-0.324,0.401-0.198,0.634,0.415,0.665c0.608,0.021,1.715-0.163,3.217-0.817
			c0.748-0.328,1.59-0.778,2.482-1.359c0.894-0.577,1.833-1.295,2.806-2.033c0.975-0.734,1.984-1.468,3.072-1.947
			c1.087-0.486,2.29-0.724,3.738-0.695c0.719,0.013,1.491,0.09,2.302,0.224l0.795,0.137l0.473,0.016l0.273,0.021
			c0.366,0.035,0.735,0.094,1.108,0.178C291.293,125.362,292.837,126.138,294.354,127.302z"/>
		<path style="fill:#231815;" d="M284.919,164.33c1.388,0.61,2.779,1.665,4.032,2.921c1.259,1.255,2.395,2.702,3.409,4.169
			c2.032,2.951,3.61,5.966,4.916,8.393c2.598,4.884,4.248,9.171,5.799,12.627c0.778,1.733,1.713,4.975,2.894,8.329
			c0.593,1.678,1.257,3.385,2.018,4.939c0.38,0.776,0.785,1.514,1.211,2.187c0.106,0.169,0.214,0.333,0.322,0.492
			c0.115,0.167,0.198,0.288,0.371,0.52c0.157,0.206,0.305,0.393,0.455,0.579l0.22,0.269c0.075,0.085,0.173,0.128,0.257,0.191
			l0.523,0.358l0.264,0.186l0.186,0.138c0.226,0.175,0.458,0.353,0.685,0.552c0.457,0.39,0.915,0.82,1.369,1.287
			c0.909,0.928,1.803,1.983,2.678,3.077c1.758,2.186,3.439,4.526,5.265,6.296c3.663,3.523,8.116,9.316,10.661,12.979
			c1.267,1.833,2.546,2.988,3.844,4.124c1.303,1.137,2.614,2.255,4.076,4.022c1.457,1.772,3.743,4.029,5.801,5.722
			c2.046,1.705,3.824,2.852,3.816,2.855c-0.001-0.016-0.307-2.046-2.583-3.611c-1.152-0.789-2.453-2.211-3.51-3.547
			c-1.065-1.335-1.903-2.58-2.325-2.988c-0.421-0.409-2.092-2.059-3.944-4.037c-1.86-1.97-3.911-4.252-5.35-5.747
			c-2.885-3-5.909-8.311-8.181-11.611c-1.129-1.655-1.33-2.805-1.59-3.782c-0.263-0.971-0.589-1.77-2.025-2.598
			c-2.881-1.627-4.106-2.414-5.58-3.674c-0.37-0.314-0.792-0.556-1.232-0.79l-0.677-0.341c-0.226-0.116-0.506-0.262-0.764-0.41
			l-0.197-0.114c-0.062-0.044-0.107-0.111-0.161-0.169c-0.104-0.117-0.204-0.241-0.303-0.37c-0.205-0.272-0.357-0.516-0.496-0.8
			c-0.279-0.561-0.47-1.219-0.519-1.997c-0.111-1.555-0.409-4.003-0.755-6.257c-0.356-2.249-0.816-4.307-1.429-4.973
			c-1.225-1.327-2.749-4.782-2.882-6.091c-0.067-0.654-0.006-2.47-0.128-4.411c-0.119-1.936-0.438-4.007-1.19-5.097
			c-0.748-1.088-1.828-2.647-2.927-4.011c-1.093-1.368-2.205-2.532-2.897-2.894c-0.691-0.362-1.169-0.394-1.685-0.585
			c-0.519-0.187-1.068-0.537-1.949-1.474c-0.89-0.928-0.884-0.788-1.189-1.133c-0.155-0.168-0.389-0.458-0.877-1.03
			c-0.492-0.564-1.232-1.432-2.505-2.6c-1.28-1.16-2.41-1.867-3.336-2.304c-0.928-0.435-1.651-0.608-2.207-0.663
			c-1.114-0.098-1.568,0.194-1.996,0.461c-0.429,0.283-0.587,0.719-0.289,1.096c0.148,0.194,0.406,0.374,0.817,0.568
			C283.543,163.762,284.11,163.971,284.919,164.33z"/>
		<path style="fill:#231815;" d="M360.921,263.951c0.539,0.425,0.824,0.779,1.163,0.935c0.332,0.147,0.49,0.295,0.674,0.375
			c0.167,0.072-0.02,0.816,0.113,0.896c0.068,0.041-0.037,0.273-0.153,0.474c-0.114,0.202-0.243,0.367-0.171,0.326
			c0.15-0.082,0.133,0.014-0.054,0.116c-0.19,0.085,0.399-0.126,0.21-0.024c-0.193,0.084-0.194,0.096-0.194,0.098
			c0.001,0.004,0.755-0.101,0.674-0.13c-0.079-0.007,0.459-0.214,0.443-0.244c-0.01-0.021-0.113-0.158-0.285-0.146
			c-0.161,0.023,0.218-0.321,0.36-0.584c0.15-0.248,0.921-0.95,0.55-0.773c-0.367,0.183-0.449,0.204-0.465,0.122
			c-0.014-0.079-0.463,0.275-0.028-0.297c0.219-0.285,0.463-0.643,0.636-0.892c0.17-0.251,0.267-0.391,0.135-0.301
			c-0.266,0.184-0.395,0.17-0.269,0.049c0.064-0.064,0.332-0.293,0.576-0.468c0.24-0.179,0.454-0.3,0.336-0.239
			c-0.231,0.13-0.675,0.284-1.088,0.417c-0.41,0.138-0.749,0.28-1.018,0.288c-0.269-0.007-0.113,0.07-0.454-0.119
			c-0.335-0.212-0.695-0.231-1.075-0.228C361.163,263.59,360.619,263.679,360.921,263.951z"/>
		<path style="fill:#231815;" d="M306.052,250.12c1.265,1.283,2.333,2.967,3.23,4.704c0.898,1.746,1.637,3.571,2.269,5.353
			c1.261,3.575,2.108,6.984,2.762,9.742c1.293,5.529,1.865,10.164,2.279,13.973c0.1,0.953,0.176,2.281,0.187,3.802
			c0.008,0.766-0.008,1.55-0.048,2.398l-0.135,2.593c-0.206,3.508-0.523,7.116-0.619,9.451c-0.184,4.663-1.606,11.535-1.613,16.974
			c-0.007,2.714-0.04,5.967-0.005,9.119c0.03,3.15,0.144,6.197,0.258,8.48c0.111,2.285,0.451,4.005,0.834,5.707
			c0.389,1.705,0.817,3.394,1.268,5.651c0.445,2.26,1.342,5.332,2.305,7.772c0.945,2.448,1.892,4.269,1.886,4.27
			c0.009-0.011,0.057-1.55-1.072-4.064c-0.567-1.266-1.107-3.096-1.48-4.756c-0.379-1.659-0.608-3.142-0.753-3.718
			c-0.149-0.576-0.724-2.89-1.191-5.613c-0.482-2.722-0.839-5.848-1.052-7.971c-0.223-2.122-0.233-4.766-0.107-7.381
			c0.123-2.615,0.372-5.204,0.575-7.257c0.419-4.106,1.469-3.964,1.234-7.245c-0.223-3.282-0.21-4.805-0.06-6.79
			c0.15-1.988-0.312-3.982,0.515-6.778c0.841-2.788,1.997-9.74,1.51-11.575c-0.384-1.764-0.824-5.621-0.813-6.936
			c0.015-0.657,0.168-2.41,0.196-4.327c0.031-1.915-0.07-3.994-0.439-5.256c-0.365-1.263-0.911-3.065-1.493-4.684
			c-0.579-1.618-1.193-3.051-1.576-3.616c-0.779-1.122-1.034-0.796-2.071-3.163c-0.535-1.176-0.532-1.05-0.719-1.477l-0.555-1.27
			c-0.319-0.701-0.791-1.77-1.675-3.329c-1.793-3.117-3.383-4.397-4.369-4.953c-0.501-0.28-0.873-0.389-1.161-0.443
			c-0.289-0.052-0.5-0.042-0.703-0.023c-0.41,0.045-0.548,0.241-0.22,0.521c0.163,0.147,0.441,0.324,0.869,0.625
			C304.726,248.935,305.311,249.377,306.052,250.12z"/>
		<path style="fill:#231815;" d="M317.345,299.235c2.568,2.205,4.953,4.431,6.657,5.885c1.707,1.44,2.986,2.721,4.076,3.745
			c1.101,1.02,3.183,4.262,4.368,5.598c1.213,1.339,2.12,3.998,3.435,5.515c0.665,0.762,1.379,1.733,1.982,2.711
			c0.605,0.978,1.096,1.961,1.38,2.72s0.638,1.253,0.977,1.761c0.338,0.507,0.665,1.032,0.813,1.803
			c0.15,0.768,0.356,1.789,0.436,2.602c0.087,0.815,0.072,1.423,0.076,1.423c-0.009,0.011,0.809-0.425,0.616-1.352
			c-0.096-0.451-0.087-1.1-0.107-1.708c-0.015-0.605-0.05-1.163-0.122-1.364c-0.07-0.202-0.37-1.01-0.817-1.916
			c-0.443-0.908-1.034-1.907-1.494-2.55c-0.898-1.287-1.785-3.513-2.513-4.946c-0.72-1.421,0.113-2.038-0.982-2.793
			c-1.102-0.745-1.533-1.143-1.996-1.762c-0.464-0.62-1.387-0.824-1.578-2.115c-0.183-1.295-1.291-3.965-1.995-4.242
			c-0.698-0.28-1.795-1.308-2.017-1.793c-0.218-0.484-0.814-2.899-1.696-3.433c-0.882-0.533-2.501-1.545-3.157-1.599
			c-0.658-0.054-0.859,0.268-1.735-0.273c-0.873-0.547,0.033,0.228-2.099-1.642c-2.112-1.892-2.608-1.98-3.142-2.025
			C316.187,297.418,315.84,297.914,317.345,299.235z"/>
		<path style="fill:#231815;" d="M352.384,337.699c0.611,0.303,0.967,0.603,1.341,0.673c0.358,0.064,0.574,0.165,0.787,0.187
			c0.105,0.011,0.19,0.215,0.315,0.423c0.123,0.207,0.287,0.417,0.411,0.427c0.229,0.023,0.441,1.055,0.743,0.918
			c0.286-0.137,0.613-0.057,0.802,0.157c0.191,0.218,0.298-0.414,0.475-0.202c0.182,0.212,0.481,0.211,0.48,0.211
			c0,0-0.05-0.787-0.153-0.705c-0.103,0.084-0.284-0.494-0.33-0.484c-0.045,0.009-0.368,0.07-0.551,0.217
			c-0.184,0.151-0.427-0.368-0.567-0.658c-0.146-0.29,0-1.323-0.169-0.95c-0.176,0.37-0.259,0.431-0.325,0.369
			c-0.057-0.057-0.294,0.468-0.21-0.248c0.048-0.358,0.113-0.784,0.178-1.076c0.064-0.295,0.113-0.456,0.029-0.321
			c-0.167,0.277-0.299,0.302-0.227,0.141c0.035-0.082,0.199-0.4,0.361-0.649c0.158-0.254,0.31-0.439,0.225-0.344
			c-0.168,0.199-0.51,0.472-0.83,0.717c-0.319,0.249-0.572,0.484-0.792,0.553c-0.237,0.066-0.086,0.107-0.417-0.008
			c-0.342-0.133-0.657-0.056-1.003,0.052c-0.17,0.05-0.379,0.131-0.515,0.239C352.313,337.442,352.231,337.592,352.384,337.699z"/>
		<path style="fill:#231815;" d="M256.408,202.016c0.468,5.508,1.784,10.791,3.02,14.224c1.23,3.433,2.318,6.176,3.304,8.398
			c0.491,1.111,1.19,3.153,1.956,5.239c0.762,2.087,1.576,4.218,2.207,5.539c1.264,2.646,2.193,6.968,3.626,9.943
			c0.722,1.49,1.487,3.311,2.108,5.094c0.625,1.783,1.098,3.527,1.346,4.842c0.249,1.311,0.577,2.264,0.876,3.231
			c0.297,0.965,0.571,1.947,0.61,3.264l0.038,1.608l0.005,0.905l-0.007,1.778l1.04,1.064l0.249,0.26l0.116,0.126l0.187,0.212
			c0.049,0.061,0.048,0.061,0.052,0.072l0.015,0.032l0.015,0.06l0.006,0.401v0.325c-0.001,0.005,0.199-0.223,0.378-0.573
			c0.045-0.098,0.088-0.151,0.127-0.187c0.039-0.045,0.071-0.1,0.088-0.161c0.031-0.13,0-0.255-0.145-0.389l-0.515-0.547
			c-0.298-0.317-0.609-0.652-0.909-0.991l0.048-0.938c0.015-0.292,0.035-0.673,0.05-0.803c0.034-0.367,0.065-0.727,0.088-1.056
			c0.045-0.661,0.062-1.206,0.029-1.461c-0.043-0.352-0.227-1.761-0.596-3.376c-0.359-1.616-0.908-3.431-1.363-4.638
			c-0.447-1.208-0.876-2.745-1.308-4.291c-0.429-1.547-0.855-3.101-1.226-4.33c-0.753-2.451,0.211-2.828-0.982-4.53
			c-1.202-1.697-1.668-2.524-2.148-3.673c-0.48-1.148-1.516-2.029-1.605-3.934c-0.104-1.907-0.94-6.238-1.633-7.11
			c-0.721-0.869-1.691-3.063-1.802-3.872c-0.06-0.405-0.098-1.515-0.186-2.69c-0.091-1.177-0.226-2.416-0.573-3.122
			c-0.349-0.704-0.828-1.725-1.27-2.663c-0.446-0.937-0.859-1.791-1.153-2.13c-0.579-0.681-0.925-0.458-1.454-1.993
			c-0.255-0.771-0.271-0.695-0.347-0.981c-0.063-0.287-0.237-0.926-0.563-3.19c-0.304-2.268-0.428-3.571-0.587-4.374
			c-0.152-0.805-0.316-1.115-0.485-1.425c-0.167-0.311-0.392-0.421-0.565-0.045C256.399,199.536,256.269,200.406,256.408,202.016z"
			/>
		<path style="fill:#231815;" d="M258.14,230.533c-1.053,2.093-1.99,4.253-2.738,6.429c-0.751,2.174-1.312,4.36-1.678,6.469
			c-0.74,4.225-0.706,8.086-0.415,11.101c0.295,3.023,0.703,5.693,1.092,8.098c0.393,2.405,0.776,4.545,1.148,6.468
			c0.37,1.92,0.61,5.389,0.703,8.917l0.033,1.36c0.032,0.545,0.068,0.996,0.119,1.481c0.099,0.947,0.231,1.855,0.38,2.711
			c0.299,1.712,0.655,3.22,1.008,4.378c1.409,4.615,1.776,11.905,3.717,16.953c0.975,2.526,1.979,5.589,2.779,8.563
			c0.806,2.974,1.398,5.858,1.663,8.015c0.267,2.155,0.771,3.701,1.232,5.259c0.451,1.55,0.873,3.134,0.763,5.17
			c-0.057,1.011-0.13,2.185-0.28,3.304c-0.146,1.121-0.381,2.175-0.667,2.96c-0.281,0.798-0.598,1.307-0.824,1.611
			c-0.227,0.304-0.378,0.433-0.377,0.438c0-0.007,0.369,0.198,0.892,0.142c0.508-0.052,1.205-0.437,1.481-1.43
			c0.135-0.486,0.345-1.076,0.56-1.747c0.215-0.669,0.432-1.417,0.614-2.156c0.365-1.477,0.583-2.903,0.545-3.461
			c-0.034-0.559-0.219-2.807-0.73-5.43c-0.49-2.622-1.273-5.598-1.93-7.589c-0.651-1.992-1.164-4.542-1.627-7.118l-1.23-7.236
			c-0.737-4.117,1.263-4.679-0.501-7.583c-1.766-2.905-2.375-4.331-2.885-6.287c-0.253-0.978-0.795-1.866-1.197-2.91
			c-0.401-1.043-0.666-2.254-0.325-3.822c0.172-0.782,0.325-1.818,0.494-2.927c0.086-0.549,0.173-1.139,0.279-1.671
			c0.114-0.537,0.215-1.191,0.296-1.787c0.321-2.426,0.338-4.681-0.102-5.516c-0.882-1.681-1.638-5.515-1.466-6.846
			c0.084-0.665,0.551-2.459,0.949-4.338c0.392-1.886,0.74-3.824,0.431-5.009c-0.318-1.191-0.703-2.898-1.023-4.479
			c-0.328-1.582-0.589-3.047-0.928-3.715c-0.341-0.667-0.691-0.985-0.969-1.456c-0.272-0.471-0.483-1.103-0.421-2.426
			c0.079-1.324,0.005-1.229,0.074-1.705c0.039-0.237,0.116-0.62,0.317-1.391c0.208-0.771,0.529-1.935,1.201-3.69
			c0.946-2.439,1.749-4.099,2.27-5.329l0.22-0.518l0.971-0.119c0.462-0.057,0.969-0.024,1.421,0.109
			c0.45,0.127,0.819,0.326,1.088,0.479c0.545,0.326,0.799,0.451,0.975,0.435c0.386,0.021,0.673-0.142,0.914-0.324
			c0.36-0.277,0.5-0.661,0.523-0.917c0.013-0.134,0.002-0.252-0.031-0.356l-0.014-0.038c-0.027-0.032-0.064-0.076-0.133-0.149
			c-0.138-0.142-0.354-0.374-0.76-0.699c-0.394-0.316-1-0.713-1.745-0.978c-0.742-0.272-1.549-0.373-2.239-0.349l-2.518,0.087
			l-0.991,1.79C258.416,230.001,258.278,230.259,258.14,230.533z"/>
		<path style="fill:#231815;" d="M259.724,303.669c-0.292,1.971-1,3.808-1.394,5.097c-0.391,1.292-0.881,2.27-1.243,3.098
			c-0.355,0.843-2.103,2.455-2.676,3.357c-0.569,0.932-2.288,1.64-2.902,2.681c-0.613,1.061-1.775,2.3-2.617,2.863
			c-0.832,0.561-0.762,1.373-1.637,1.891c-0.865,0.522-2.213,1.57-2.219,1.562c-0.003,0,0.706,0.458,1.131,0.013
			c0.417-0.43,1.594-0.695,1.788-0.889c0.201-0.178,1.512-1.525,2.039-2.347c0.538-0.803,1.839-1.558,2.645-2.148
			c0.8-0.583,1.623,0.052,1.769-0.807c0.138-0.857,0.277-1.189,0.581-1.55c0.304-0.365,0.086-1.056,1.045-1.229
			c0.961-0.165,2.679-1.095,2.611-1.628c-0.064-0.523,0.308-1.374,0.608-1.563c0.301-0.18,2.032-0.79,2.078-1.478
			c0.05-0.678,0.133-1.926-0.137-2.387c-0.267-0.463-0.622-0.565-0.611-1.226c0.007-0.663-0.144,0.052,0.266-1.632
			c0.392-1.685,0.109-2.027-0.153-2.367C260.426,302.642,259.892,302.519,259.724,303.669z"/>
		<path style="fill:#231815;" d="M244.01,140.293c0.305,0.32,0.593,0.932,0.805,1.553c0.216,0.629,0.378,1.302,0.511,1.957
			c0.263,1.315,0.409,2.568,0.556,3.58c0.289,2.032,0.311,3.719,0.389,5.107c0.082,1.391-0.661,4.924-0.67,6.616
			c-0.006,1.691-1.057,4.18-0.914,6.148c0.135,1.961,0.086,4.704-0.055,6.368c-0.139,1.673,0.537,2.497,0.51,4.2
			c-0.009,0.856,0.114,2.052,0.336,3.071c0.205,1.015,0.55,1.866,0.55,1.866c0.003,0,0.124-0.217,0.203-0.551
			c0.08-0.337,0.122-0.778-0.051-1.288c-0.173-0.512-0.195-1.247-0.16-1.888c0.032-0.645,0.111-1.202,0.082-1.42
			c-0.03-0.215-0.141-1.077-0.243-2.077c-0.104-0.998-0.202-2.132-0.299-2.902c-0.201-1.542,0.303-3.811,0.597-5.291
			c0.293-1.485,1.336-1.432,0.966-2.618c-0.368-1.189-0.427-1.74-0.364-2.456c0.063-0.719-0.486-1.446,0.253-2.449
			c0.74-1.001,1.783-3.493,1.47-4.135c-0.308-0.64-0.384-2.039-0.21-2.509c0.18-0.462,1.415-2.501,1.12-3.458
			c-0.281-0.946-0.842-2.707-1.325-3.141c-0.479-0.435-0.827-0.316-1.191-1.213c-0.187-0.444-0.213-0.397-0.269-0.559
			c-0.068-0.155-0.121-0.547-0.555-1.756c-0.449-1.202-0.981-1.693-1.296-1.779c-0.331-0.097-0.523,0.037-0.683,0.159
			c-0.164,0.131-0.255,0.337-0.288,0.48c-0.016,0.073-0.022,0.13-0.006,0.167l0.045,0.048
			C243.861,140.147,243.923,140.204,244.01,140.293z"/>
		<path style="fill:#231815;" d="M250.54,145.484c0.608-0.181,1.273-0.183,1.886-0.09c0.616,0.09,1.185,0.264,1.662,0.395
			c0.961,0.267,1.663,0.723,2.261,1.058c0.62,0.334,1.523,1.977,2.147,2.527c0.644,0.548,0.842,2.127,1.653,2.707
			c0.812,0.579,1.756,1.612,2.231,2.353c0.479,0.743,1.233,0.585,1.758,1.315c0.266,0.368,0.713,0.803,1.119,1.135
			c0.403,0.336,0.759,0.568,0.756,0.568c-0.001-0.003,0.206-0.803-0.273-1.052c-0.498-0.259-0.836-1.289-1.004-1.425
			c-0.184-0.134-1.379-1.131-2.045-1.573c-0.678-0.441-1.137-1.611-1.476-2.337c-0.34-0.726,0.405-1.456-0.301-1.599
			c-0.706-0.142-0.956-0.281-1.189-0.565c-0.236-0.288-0.881-0.117-0.784-0.991c0.111-0.874-0.271-2.495-0.751-2.456
			c-0.464,0.037-1.105-0.332-1.214-0.616c-0.051-0.143-0.123-0.625-0.279-1.083c-0.155-0.458-0.401-0.892-0.707-0.912
			c-0.605-0.052-1.724-0.062-2.125,0.257c-0.401,0.311-0.494,0.662-1.032,0.752c-0.266,0.048-0.254,0.088-0.345,0.093
			c-0.09,0.011-0.288-0.025-0.947-0.015c-0.658,0.02-1.02,0.175-1.235,0.34c-0.216,0.163-0.291,0.357-0.364,0.54
			c-0.073,0.186-0.089,0.417-0.007,0.567C250.019,145.527,250.187,145.59,250.54,145.484z"/>
		<path style="fill:#231815;" d="M215.837,157.231c-0.045,7.526-0.638,15.33-0.382,22.68l3.114-3.114l-1.74,0.06l-3.27,0.11
			l0.215,2.945c0.068,0.928-0.288,2.156-0.896,3.349c-0.605,1.201-1.422,2.378-2.291,3.481c-1.755,2.211-3.711,4.153-5.503,5.863
			c-3.814,3.608-7.648,6.607-11.141,9.351c-1.752,1.371-3.429,2.673-5.013,3.956c-1.585,1.288-3.079,2.535-4.446,3.923
			c-1.277,1.34-3.072,3.063-5.184,5.07c-2.103,2.002-4.494,4.269-6.859,6.663c-2.365,2.389-4.697,4.914-6.71,7.358
			c-2.017,2.439-3.711,4.791-4.911,6.717c-2.417,3.839-5.506,8.56-8.118,13.865c-0.174,0.346-0.327,0.684-0.483,1.022l-0.449,0.963
			l-0.886,1.925c-0.588,1.282-1.165,2.561-1.721,3.826c-1.112,2.531-2.141,5.005-2.994,7.347
			c-1.702,4.687-3.987,10.174-6.548,15.237c-2.545,5.072-5.395,9.687-7.785,12.889c-2.384,3.202-4.045,5.699-5.828,8.129
			c-1.79,2.408-3.71,4.77-6.8,7.189c-1.545,1.203-3.411,2.578-5.402,3.857c-1.988,1.286-4.102,2.471-6.059,3.426
			c-3.913,1.917-7.177,2.913-7.17,2.925c-0.001-0.004,0.661,0.2,1.885,0.147c1.218-0.052,3.017-0.373,5.135-1.486
			c2.114-1.103,5.08-2.503,7.664-3.998c2.59-1.473,4.799-2.995,5.588-3.705c0.792-0.699,3.942-3.572,7.063-7.434
			c1.568-1.922,3.14-4.069,4.531-6.17c1.392-2.103,2.608-4.157,3.532-5.853c1.856-3.385,4.265-7.529,6.568-11.759
			c2.312-4.221,4.537-8.507,6.225-11.964c1.683-3.457,2.965-4.983,4.031-6.384c1.062-1.4,1.897-2.683,2.607-5.692
			c0.675-3.018,1.347-5.173,2.055-7.001c0.706-1.826,1.442-3.315,2.373-4.946c0.936-1.627,1.653-3.373,2.686-5.176
			c1.032-1.799,2.384-3.658,4.549-5.358c1.081-0.852,2.494-2.034,4.06-3.332l4.94-4.098c3.314-2.756,6.391-5.383,7.31-6.771
			c0.459-0.691,1.115-1.539,1.874-2.444c0.38-0.452,0.784-0.918,1.202-1.387l0.632-0.701c0.191-0.208,0.392-0.418,0.601-0.624
			c1.691-1.653,3.65-3.077,4.695-3.669c1.054-0.597,4.023-1.927,7.209-3.565c3.179-1.633,6.567-3.657,8.323-5.478
			c1.753-1.806,4.247-4.463,6.257-7.248c1.006-1.387,1.887-2.804,2.513-4.086c0.631-1.279,0.999-2.419,1.101-3.139
			c0.157-1.116,0.042-1.778-0.061-2.448c-0.125-0.67-0.196-1.372-0.416-2.561l-0.477,0.476c0.473-0.102,1.04-0.199,1.74-0.291
			l0.204-0.027l-0.019-0.159l-0.092-0.808c-0.234-2.411-0.279-2.196-0.324-3.076c-0.025-0.878-0.081-2.87,0.172-9.688
			c0.279-6.813,0.202-10.637-0.064-12.972c-0.262-2.334-0.636-3.187-1-4.035c-0.37-0.845-0.831-1.089-1.133-0.032
			C216.002,150.365,215.858,152.709,215.837,157.231z"/>
		<path style="fill:#231815;" d="M138.201,283.493c0.439,1.686,0.363,3.429,0.395,4.625c0.035,1.203-0.134,2.168-0.224,2.973
			c-0.082,0.815-1.236,2.642-1.472,3.592c-0.229,0.958-1.587,2.082-1.751,3.226c-0.163,1.143-0.669,2.67-1.121,3.547
			c-0.454,0.88,0.028,1.526-0.405,2.415c-0.44,0.892-0.792,2.585-0.788,2.586c0.001-0.001,0.826-0.127,0.867-0.714
			c0.04-0.593,0.833-1.453,0.885-1.697c0.046-0.247,0.419-1.969,0.515-2.878c0.089-0.913,0.942-2.049,1.449-2.806
			c0.508-0.758,1.502-0.447,1.32-1.222c-0.183-0.776-0.165-1.105-0.005-1.498c0.16-0.394-0.273-0.946,0.573-1.335
			c0.848-0.381,2.177-1.59,1.951-2.039c-0.22-0.443-0.127-1.273,0.1-1.51c0.23-0.227,1.688-1.189,1.521-1.811
			c-0.161-0.612-0.476-1.73-0.881-2.057c-0.402-0.328-0.77-0.32-0.977-0.889c-0.216-0.565-0.111,0.082-0.303-1.46
			c-0.223-1.534-0.625-1.718-0.992-1.909C138.477,282.445,137.942,282.517,138.201,283.493z"/>
		<path style="fill:#231815;" d="M190.326,207.906c0.228,6.457-0.725,12.98-1.408,17.383c-0.679,4.415-1.558,7.972-2.244,10.913
			c-0.667,2.948-3.453,10.173-4.464,13.706c-1.002,3.531-3.483,8.497-4.409,12.663c-0.466,2.078-1.066,4.557-1.635,6.953
			l-1.534,6.442c-0.424,1.73-0.535,3.088-0.629,4.443c-0.092,1.356-0.167,2.71-0.459,4.47c-0.295,1.761-0.541,4.22-0.642,6.243
			c-0.109,2.022-0.096,3.604-0.1,3.603c0.005-0.001,0.772-1.051,0.763-3.194c-0.004-1.076,0.198-2.544,0.435-3.847
			c0.232-1.306,0.493-2.448,0.539-2.91c0.044-0.462,0.228-2.309,0.512-4.447c0.276-2.138,0.661-4.565,0.913-6.213
			c0.483-3.311,2.122-7.978,3.222-11.022c1.099-3.049,2.091-2.699,2.404-5.272c0.323-2.572,0.589-3.738,1.07-5.225
			c0.483-1.486,0.377-3.132,1.685-5.061c1.316-1.923,3.773-6.895,3.82-8.315c0.064-1.411,0.755-4.37,1.169-5.317
			c0.21-0.472,0.884-1.691,1.517-3.063c0.634-1.369,1.222-2.893,1.304-3.921c0.182-2.054,0.4-5.887,0.11-6.952
			c-0.28-1.064-0.659-0.93-0.643-2.963c0.001-1.017-0.042-0.928-0.031-1.295c0.003-0.367,0.094-1.19,0.191-4.027
			c0.078-2.837-0.056-4.435-0.208-5.411c-0.157-0.978-0.345-1.336-0.531-1.695c-0.185-0.357-0.415-0.463-0.566-0.012
			C190.326,205.017,190.26,206.02,190.326,207.906z"/>
		<path style="fill:#231815;" d="M184.218,249.575c1.15,0.969,1.908,2.321,2.508,3.193c0.606,0.878,0.93,1.684,1.247,2.326
			c0.327,0.648,0.24,2.581,0.506,3.4c0.277,0.825-0.343,2.317,0.062,3.236c0.41,0.922,0.682,2.293,0.674,3.152
			c-0.008,0.858,0.706,1.133,0.699,1.997c-0.008,0.861,0.35,2.305,0.35,2.306c0,0,0.702-0.433,0.5-0.905
			c-0.202-0.474,0.15-1.469,0.089-1.68c-0.061-0.211-0.484-1.69-0.823-2.418c-0.337-0.727-0.129-1.973-0.056-2.784
			c0.074-0.809,1.085-1.06,0.547-1.554c-0.538-0.491-0.685-0.744-0.742-1.116c-0.056-0.373-0.702-0.566-0.167-1.275
			c0.539-0.706,1.081-2.272,0.667-2.495c-0.407-0.219-0.733-0.882-0.654-1.174c0.087-0.283,0.874-1.736,0.431-2.119
			c-0.435-0.378-1.239-1.06-1.743-1.1c-0.503-0.042-0.813,0.153-1.26-0.168c-0.454-0.31-0.057,0.116-0.952-0.931
			c-0.917-1.021-1.344-0.922-1.738-0.857C183.963,248.689,183.549,249.03,184.218,249.575z"/>
	</g>
</g>
</svg>
